<svg width="40" height="40" viewBox="0 0 40 40" fill="none" xmlns="http://www.w3.org/2000/svg">
<path d="M8.7 29.85C13.71 31.59 17.46 32.77 19.97 33.39C22.47 34.01 24.62 34.32 26.42 34.32C28.22 34.32 30.2 33.91 32.36 33.09L32.54 33.37C29.67 35.34 26.78 36.33 23.87 36.33C20.88 36.33 17.49 35.4 13.68 33.54C10.74 32.08 8.92 31.2 8.21 30.9C5.69 29.77 3.63 29.2 2 29.17V28.82H2.46C3.07 28.82 3.59 28.61 4.03 28.19C4.46 27.77 4.69 27.24 4.72 26.6V7.07C4.7 6.46 4.47 5.94 4.03 5.5C3.59 5.07 3.07 4.85 2.46 4.85H2V4.5H9.72V4.85H9.26C8.65 4.85 8.12 5.07 7.67 5.5C7.22 5.94 7 6.46 7 7.07V27.41C7 27.83 7.02 28.16 7.07 28.38C7.12 28.6 7.27 28.86 7.53 29.14C7.79 29.43 8.18 29.66 8.7 29.85Z" fill="#F3F3F4"/>
<path d="M18.59 26.11C16.25 23.76 15.08 20.66 15.08 16.82C15.08 12.98 16.25 9.88 18.59 7.53C20.93 5.18 24.03 4 27.88 4C31.03 4 33.82 4.8 36.24 6.4L36.95 11.37H36.63C36.11 9.35 35.07 7.79 33.49 6.7C31.91 5.61 30.05 5.06 27.88 5.06C24.8 5.06 22.34 6.13 20.49 8.27C18.64 10.41 17.72 13.24 17.72 16.77C17.72 20.3 18.63 23.13 20.45 25.29C22.27 27.44 24.68 28.55 27.66 28.62C30.29 28.62 32.49 27.9 34.25 26.47C36.15 24.92 37.31 22.39 37.71 18.89H38L37.58 24.43C35.44 27.93 32.14 29.68 27.67 29.68C23.95 29.65 20.93 28.46 18.59 26.11Z" fill="#F3F3F4"/>
</svg>
